#!Matlab matrix to amc conversion
:FULLY-SPECIFIED
:DEGREES
16
root 9.192140 16.357400 -29.724600 1.578295 1.634016 0.120050
lowerback 13.633599 -0.288489 2.995912
upperback -0.342315 0.411145 3.591449
thorax -8.129961 0.169176 2.250595
lowerneck -12.854775 -1.385162 -2.747981
upperneck 25.574938 -1.169661 -0.485872
head 10.533105 -0.843462 0.113837
rclavicle -0.000000 0.000000
rhumerus -35.815992 -9.737544 -77.256394
rradius 27.437773
rwrist 1.984792
rhand -13.969257 11.099165
rfingers 7.125020
rthumb 12.162214 -18.491663
lclavicle -0.000000 0.000000
lhumerus -41.557009 8.068177 83.662813
lradius 33.649524
lwrist 3.223276
lhand -11.638480 46.826445
lfingers 7.125020
lthumb 14.399252 76.224542
rfemur -5.943267 5.293086 32.549099
rtibia 24.723674
rfoot -11.224166 -9.011637
rtoes 14.651732
lfemur -16.442303 -0.486621 -14.451355
ltibia 64.623671
lfoot 6.444340 -0.354217
ltoes -10.353272
17
root 9.191770 16.245600 -29.440800 1.696383 1.634016 0.094284
lowerback 13.630969 -0.014981 3.416403
upperback -0.362423 0.852844 3.552120
thorax -8.163482 0.360259 1.848931
lowerneck -12.927984 -1.493914 -2.703602
upperneck 25.725621 -1.340709 -0.435934
head 10.601804 -0.914808 0.103161
rclavicle -0.000000 0.000000
rhumerus -35.080498 -8.854169 -77.783835
rradius 28.714584
rwrist 1.031839
rhand -14.066069 10.969344
rfingers 7.125020
rthumb 12.067580 -18.633515
lclavicle -0.000000 0.000000
lhumerus -41.697378 8.438867 83.170571
lradius 33.658634
lwrist 3.478475
lhand -11.812802 46.824329
lfingers 7.125020
lthumb 14.232031 76.223565
rfemur -3.765866 5.293696 33.374420
rtibia 24.446799
rfoot -12.366688 -8.919972
rtoes 14.121726
lfemur -19.480438 -0.223455 -13.936842
ltibia 63.250053
lfoot 2.720525 1.205344
ltoes -11.691678
18
root 9.208550 16.156600 -29.151500 1.759972 1.634016 0.085483
lowerback 13.615848 0.244359 3.745058
upperback -0.386066 1.261104 3.508901
thorax -8.185603 0.536704 1.481163
lowerneck -12.997347 -1.589225 -2.660839
upperneck 25.872322 -1.486938 -0.405311
head 10.669948 -0.977273 0.092159
rclavicle -0.000000 0.000000
rhumerus -34.422996 -8.069361 -78.240570
rradius 29.947431
rwrist 0.156639
rhand -14.155105 10.860981
rfingers 7.125020
rthumb 11.980488 -18.748088
lclavicle -0.000000 0.000000
lhumerus -41.838210 8.812307 82.676062
lradius 33.681186
lwrist 3.699404
lhand -11.971545 46.809408
lfingers 7.125020
lthumb 14.079796 76.209016
rfemur -1.683947 5.297959 34.088352
rtibia 24.209978
rfoot -13.328004 -8.840850
rtoes 13.656179
lfemur -22.177006 -0.119161 -13.538486
ltibia 61.505472
lfoot -0.535916 2.748894
ltoes -12.396087
19
root 9.222000 16.080900 -28.855000 1.803371 1.634016 0.082307
lowerback 13.588041 0.501023 4.050798
upperback -0.414021 1.661463 3.458229
thorax -8.197036 0.709495 1.119024
lowerneck -13.067520 -1.675550 -2.616577
upperneck 26.016890 -1.616715 -0.389223
head 10.738535 -1.033733 0.079390
rclavicle -0.000000 0.000000
rhumerus -33.776281 -7.287966 -78.691482
rradius 31.178397
rwrist -0.711006
rhand -14.238379 10.736527
rfingers 7.125020
rthumb 11.898969 -18.875523
lclavicle -0.000000 0.000000
lhumerus -41.984975 9.201193 82.165584
lradius 33.719535
lwrist 3.899850
lhand -12.118456 46.781470
lfingers 7.125020
lthumb 13.938954 76.180692
rfemur 0.371982 5.306003 34.742223
rtibia 23.942344
rfoot -14.204815 -8.769342
rtoes 13.223844
lfemur -24.724384 -0.125110 -13.189273
ltibia 58.916294
lfoot -3.616058 4.414860
ltoes -12.778431
20
root 9.232280 16.013400 -28.551200 1.849996 1.634016 0.080663
lowerback 13.547195 0.766384 4.397741
upperback -0.447212 2.078968 3.395927
thorax -8.198147 0.889389 0.734679
lowerneck -13.143217 -1.756925 -2.567596
upperneck 26.161142 -1.737465 -0.385162
head 10.808571 -1.086785 0.063180
rclavicle -0.000000 0.000000
rhumerus -33.074251 -6.415248 -79.200630
rradius 32.449498
rwrist -1.640690
rhand -14.317776 10.552855
rfingers 7.125020
rthumb 11.821182 -19.060466
lclavicle -0.000000 0.000000
lhumerus -42.143377 9.618745 81.624994
lradius 33.777686
lwrist 4.092319
lhand -12.257004 46.740121
lfingers 7.125020
lthumb 13.806181 76.138203
rfemur 2.470549 5.318067 35.383040
rtibia 23.563809
rfoot -15.085318 -8.700992
rtoes 12.795705
lfemur -27.304308 -0.244076 -12.830455
ltibia 54.779591
lfoot -6.795221 6.352647
ltoes -13.008021
21
root 9.239730 15.970900 -28.241000 1.925002 1.634016 0.078432
lowerback 13.492787 1.052198 4.858642
upperback -0.486733 2.539736 3.316860
thorax -8.188972 1.087582 0.298584
lowerneck -13.229520 -1.837155 -2.510326
upperneck 26.306895 -1.856096 -0.392495
head 10.881082 -1.138870 0.041401
rclavicle -0.000000 0.000000
rhumerus -32.245149 -5.345398 -79.840344
rradius 33.804121
rwrist -2.706982
rhand -14.395090 10.246320
rfingers 7.125020
rthumb 11.745368 -19.367716
lclavicle -0.000000 0.000000
lhumerus -42.319570 10.079158 81.039311
lradius 33.861713
lwrist 4.288822
lhand -12.390461 46.684774
lfingers 7.125020
lthumb 13.678343 76.080964
rfemur 4.681804 5.334509 36.056876
rtibia 22.961101
rfoot -16.058084 -8.631541
rtoes 12.343030
lfemur -30.100836 -0.531529 -12.401671
ltibia 47.972297
lfoot -10.357573 8.736036
ltoes -13.186528
22
root 9.241850 15.946000 -27.925100 1.902422 1.634016 0.258208
lowerback 13.210217 1.187470 5.080869
upperback -0.621835 2.723511 3.246363
thorax -8.135103 1.170838 0.156369
lowerneck -13.113376 -1.741757 -2.653416
upperneck 26.118046 -1.707047 -0.320609
head 10.785651 -1.076288 0.114389
rclavicle -0.000000 0.000000
rhumerus -32.002779 -4.928494 -79.879639
rradius 34.416235
rwrist -2.915492
rhand -14.293249 10.248715
rfingers 7.125020
rthumb 11.843507 -19.364907
lclavicle -0.000000 0.000000
lhumerus -42.337134 10.163951 81.130451
lradius 33.987871
lwrist 4.237748
lhand -12.392956 46.576424
lfingers 7.125020
lthumb 13.673532 75.981329
rfemur 7.772883 5.456925 35.656881
rtibia 18.463413
rfoot -14.543728 -8.159381
rtoes 9.892957
lfemur -29.574472 -4.279851 -11.743956
ltibia 36.782504
lfoot -10.339799 10.676754
ltoes -13.046771
23
root 9.242890 15.925900 -27.604900 1.883997 1.634016 0.335138
lowerback 12.934034 1.300436 5.188451
upperback -0.741709 2.852650 3.178971
thorax -8.077060 1.231300 0.043868
lowerneck -13.006312 -1.651120 -2.776567
upperneck 25.937379 -1.568452 -0.261621
head 10.694884 -1.017266 0.174090
rclavicle -0.000000 0.000000
rhumerus -31.789913 -4.561350 -79.905632
rradius 34.917452
rwrist -3.103345
rhand -14.195838 10.263129
rfingers 7.125020
rthumb 11.937342 -19.349139
lclavicle -0.000000 0.000000
lhumerus -42.363637 10.261187 81.202935
lradius 34.078262
lwrist 4.173672
lhand -12.393157 46.459044
lfingers 7.125020
lthumb 13.670935 75.871663
rfemur 10.261617 5.578236 35.308636
rtibia 16.028371
rfoot -13.546620 -7.718139
rtoes 7.859419
lfemur -29.121528 -6.385537 -11.400467
ltibia 31.301818
lfoot -10.263724 11.586333
ltoes -12.968246
24
root 9.243090 15.943100 -27.273700 1.864749 1.634016 0.372421
lowerback 12.659738 1.399813 5.229393
upperback -0.850497 2.947740 3.111170
thorax -8.013330 1.277803 -0.048486
lowerneck -12.904439 -1.563409 -2.884114
upperneck 25.762934 -1.436507 -0.211651
head 10.607710 -0.960423 0.224347
rclavicle -0.000000 0.000000
rhumerus -31.601745 -4.236742 -79.919212
rradius 35.333940
rwrist -3.276101
rhand -14.101460 10.290120
rfingers 7.125020
rthumb 12.028220 -19.319740
lclavicle -0.000000 0.000000
lhumerus -42.399982 10.372369 81.257733
lradius 34.135794
lwrist 4.093059
lhand -12.391067 46.331006
lfingers 7.125020
lthumb 13.670507 75.750469
rfemur 12.349989 5.702078 34.969069
rtibia 14.726958
rfoot -12.818276 -7.298308
rtoes 6.045013
lfemur -28.703391 -7.563745 -11.306269
ltibia 28.553893
lfoot -10.111438 11.976652
ltoes -12.919318
25
root 9.241190 15.944900 -26.946700 1.839479 1.634016 0.400686
lowerback 12.382858 1.493269 5.221964
upperback -0.951958 3.023939 3.039424
thorax -7.942254 1.317146 -0.128547
lowerneck -12.804057 -1.476848 -2.979842
upperneck 25.592819 -1.307591 -0.167412
head 10.523102 -0.904433 0.268395
rclavicle -0.000000 0.000000
rhumerus -31.434029 -3.948282 -79.920844
rradius 35.687443
rwrist -3.438876
rhand -14.008764 10.330731
rfingers 7.125020
rthumb 12.117442 -19.275456
lclavicle -0.000000 0.000000
lhumerus -42.447406 10.499210 81.295579
lradius 34.162319
lwrist 3.991458
lhand -12.386650 46.190530
lfingers 7.125020
lthumb 13.672239 75.616086
rfemur 14.207491 5.832167 34.596177
rtibia 14.062660
rfoot -12.177188 -6.890843
rtoes 4.273608
lfemur -28.284416 -8.214630 -11.443555
ltibia 27.046437
lfoot -9.847086 12.067371
ltoes -12.880273
26
root 9.242210 15.966300 -26.610400 1.801362 1.634016 0.443154
lowerback 12.098885 1.588015 5.162850
upperback -1.049597 3.093394 2.959991
thorax -7.861980 1.355076 -0.203123
lowerneck -12.701520 -1.389684 -3.067122
upperneck 25.425187 -1.178163 -0.125991
head 10.440063 -0.847985 0.309067
rclavicle -0.000000 0.000000
rhumerus -31.282980 -3.690295 -79.910583
rradius 35.996419
rwrist -3.596490
rhand -13.916420 10.386529
rfingers 7.125020
rthumb 12.206287 -19.214400
lclavicle -0.000000 0.000000
lhumerus -42.507526 10.643670 81.316979
lradius 34.158689
lwrist 3.863265
lhand -12.379825 46.035665
lfingers 7.125020
lthumb 13.676164 75.466677
rfemur 15.984873 5.972403 34.143838
rtibia 13.782034
rfoot -11.463592 -6.486963
rtoes 2.373247
lfemur -27.828884 -8.559252 -11.838278
ltibia 25.960809
lfoot -9.408432 11.909544
ltoes -12.835380
27
root 9.248620 16.002100 -26.265200 1.740100 1.634016 0.534712
lowerback 11.803190 1.691362 5.025672
upperback -1.146788 3.167178 2.868731
thorax -7.770415 1.397137 -0.278557
lowerneck -12.593104 -1.300153 -3.149027
upperneck 25.258221 -1.044672 -0.084666
head 10.357613 -0.789760 0.348983
rclavicle -0.000000 0.000000
rhumerus -31.145190 -3.457704 -79.888078
rradius 36.276999
rwrist -3.753609
rhand -13.823107 10.459672
rfingers 7.125020
rthumb 12.296029 -19.133970
lclavicle -0.000000 0.000000
lhumerus -42.582389 10.807978 81.322219
lradius 34.124789
lwrist 3.701405
lhand -12.370470 45.864259
lfingers 7.125020
lthumb 13.682350 75.300199
rfemur 17.826388 6.126990 33.556103
rtibia 13.778016
rfoot -10.499656 -6.077966
rtoes 0.159456
lfemur -27.297963 -8.714657 -12.565059
ltibia 24.707446
lfoot -8.692200 11.414351
ltoes -12.766554
28
root 9.251840 16.054000 -25.912300 1.450512 1.634016 0.343575
lowerback 10.884385 2.071721 3.204558
upperback -1.101744 3.390097 2.252354
thorax -7.272382 1.562365 -0.107181
lowerneck -12.078673 -1.240780 -2.902320
upperneck 25.109676 -1.094966 0.012433
head 10.144820 -0.771462 0.345052
rclavicle -0.000000 0.000000
rhumerus -32.454474 -5.175341 -79.493382
rradius 34.530880
rwrist -2.980998
rhand -13.833417 10.624860
rfingers 7.125020
rthumb 12.283082 -18.946884
lclavicle -0.000000 0.000000
lhumerus -41.887921 10.690737 81.665168
lradius 33.761414
lwrist 3.891694
lhand -12.489395 44.999988
lfingers 7.125020
lthumb 13.577312 74.468219
rfemur 15.606288 6.679956 30.651542
rtibia 21.855598
rfoot -5.332876 -5.440140
rtoes -1.965196
lfemur -24.378720 -8.306068 -15.718275
ltibia 25.317246
lfoot -5.749130 10.278500
ltoes -11.076875
29
root 9.251340 16.118500 -25.555100 1.452843 1.634016 0.368107
lowerback 11.681976 1.675583 2.158975
upperback -1.199011 2.766452 1.961161
thorax -7.783315 1.279360 0.185245
lowerneck -11.869704 -1.162892 -2.914977
upperneck 25.281592 -0.967599 -0.109984
head 10.173235 -0.725824 0.312718
rclavicle -0.000000 0.000000
rhumerus -33.501380 -6.722073 -78.922918
rradius 32.718204
rwrist -1.768589
rhand -13.640228 11.061418
rfingers 7.125020
rthumb 12.470717 -18.498386
lclavicle -0.000000 0.000000
lhumerus -41.493989 10.354006 82.075431
lradius 34.398844
lwrist 4.805100
lhand -12.462162 45.436491
lfingers 7.125020
lthumb 13.619362 74.910787
rfemur 10.076194 5.071410 28.114801
rtibia 32.445138
rfoot 2.716933 -5.443448
rtoes 3.333013
lfemur -21.959909 -7.138582 -18.299010
ltibia 25.897636
lfoot -6.335642 7.825142
ltoes -7.924675
